# xmcd
#
# Track frame offsets:
#	150
#	13365
#	36310
#	53175
#	67275
#	90192
#	110392
#	122857
#	139895
#	153532
#	173457
#	199340
#	214287
#
# Disc length: 3071
#
# Revision: 4
# Processed by: cddbd v1.5.1PL0 Copyright (c) Steve Scherf et al.
# Submitted via: OrangeCD 4.3
# Normalized: r3:DSETVAR1
#
DISCID=c10bfd0d
DTITLE=Various Artist - Texans - Live From Mountain Stage
DYEAR=1900
DGENRE=Country
TTITLE0=(Is Anybody Going To)San Antone - Texas Tornados
TTITLE1=Shake Your Hips - Lou Ann Barton
TTITLE2=Portales - Ray Wylie Hubbard
TTITLE3=Whatever Way The Wind Blows - Kelly Willis
TTITLE4=Shadowboxing - Sara Hickman
TTITLE5=Just A Wave - Jimmie Dale Gilmore
TTITLE6=Buckskin Stallion Blues - Townes Van Zandt
TTITLE7=Georgia On A Fast Train - Billy Joe Shaver
TTITLE8=I Had My Hopes Up High - Joe Ely
TTITLE9=Espeate (Wait For Me) - Tish Hinojosa
TTITLE10=St. Gabriel - Marcia Ball
TTITLE11=She Ain't Going Nowhere - Guy Clark
TTITLE12=Miles And Miles Of Texas - Asleep At The Wheel
EXTD=
EXTT0=
EXTT1=
EXTT2=
EXTT3=
EXTT4=
EXTT5=
EXTT6=
EXTT7=
EXTT8=
EXTT9=
EXTT10=
EXTT11=
EXTT12=
PLAYORDER=
